#tb 0: 1/25
0,          0,          0,        1,   518400, 0x41c2ce17
0,          1,          1,        1,   518400, 0x39f217da
0,          2,          2,        1,   518400, 0x5a108db9
0,          3,          3,        1,   518400, 0x20cb214c
